<?xml version="1.0" encoding="UTF-8" standalone="no"?>
<svg
   height="512"
   width="512"
   version="1.1"
   viewBox="0 0 135.46666 135.46667"
   id="svg275"
   sodipodi:docname="uAdBlockNG.svg"
   inkscape:version="1.2.2 (b0a8486541, 2022-12-01)"
   xmlns:inkscape="http://www.inkscape.org/namespaces/inkscape"
   xmlns:sodipodi="http://sodipodi.sourceforge.net/DTD/sodipodi-0.dtd"
   xmlns="http://www.w3.org/2000/svg"
   xmlns:svg="http://www.w3.org/2000/svg">
  <defs
     id="defs279" />
  <sodipodi:namedview
     id="namedview277"
     pagecolor="#ffffff"
     bordercolor="#666666"
     borderopacity="1.0"
     inkscape:showpageshadow="2"
     inkscape:pageopacity="0.0"
     inkscape:pagecheckerboard="0"
     inkscape:deskcolor="#d1d1d1"
     showgrid="false"
     inkscape:zoom="0.4609375"
     inkscape:cx="-267.9322"
     inkscape:cy="256"
     inkscape:window-width="1500"
     inkscape:window-height="931"
     inkscape:window-x="0"
     inkscape:window-y="0"
     inkscape:window-maximized="1"
     inkscape:current-layer="svg275" />
  <g
     transform="translate(0 -161.5)"
     id="g273">
    <g
       id="g269">
      <rect
         style="color-rendering:auto;color:#000000;isolation:auto;mix-blend-mode:normal;paint-order:stroke fill markers;shape-rendering:auto;solid-color:#000000;image-rendering:auto"
         height="135.5"
         width="135.5"
         y="161.5"
         x="-.01271"
         stroke-width="2"
         fill="#df382c"
         id="rect263" />
      <path
         d="m67.73 189.2c-13.18 13.18-27.61 19.44-44.47 22.95 0 31.71 19.05 56.2 44.47 65.98 25.64-9.873 44.47-34.51 44.47-65.98-16.75-3.49-31.22-9.709-44.47-22.95zm-12.7 25.95h5.32v15.56c0 3.623 0.5718 6.216 1.716 7.78s3.07 2.345 5.778 2.345c0.572 0 1.163-0.0189 1.773-0.0571 0.6102-0.038 1.182-0.0759 1.716-0.114 0.5339-0.0763 1.011-0.1337 1.431-0.1718 0.4576-0.0763 0.7817-0.1526 0.9724-0.2288v-25.11h5.319v28.89c-1.22 0.3051-2.841 0.6292-4.862 0.9724-1.983 0.3432-4.291 0.5147-6.922 0.5147-2.288 0-4.214-0.3241-5.777-0.9724-1.564-0.6864-2.822-1.64-3.775-2.86-0.9534-1.22-1.64-2.65-2.059-4.29-0.4195-1.678-0.6294-3.528-0.6294-5.549z"
         stroke-width="1.434"
         fill="#d6d3cf"
         id="path265" />
      <path
         d="m67.73 183.5c-13.5 13.5-28.29 19.92-45.56 23.52 0 32.49 19.52 57.58 45.56 67.61 26.27-10.12 45.56-35.37 45.56-67.61-17.17-3.576-32-9.949-45.56-23.52zm-12.7 31.65h5.32v15.56c0 3.623 0.5718 6.216 1.716 7.78s3.07 2.345 5.778 2.345c0.572 0 1.163-0.0189 1.773-0.0571 0.6102-0.038 1.182-0.0759 1.716-0.114 0.5339-0.0763 1.011-0.1337 1.431-0.1718 0.4576-0.0763 0.7817-0.1526 0.9724-0.2288v-25.11h5.319v28.89c-1.22 0.3051-2.841 0.6292-4.862 0.9724-1.983 0.3432-4.291 0.5147-6.922 0.5147-2.288 0-4.214-0.3241-5.777-0.9724-1.564-0.6864-2.822-1.64-3.775-2.86-0.9534-1.22-1.64-2.65-2.059-4.29-0.4195-1.678-0.6294-3.528-0.6294-5.549z"
         stroke-width="1.47"
         fill="#f6f6f5"
         id="path267" />
    </g>
    <rect
       opacity=".1"
       style="color-rendering:auto;color:#000000;isolation:auto;mix-blend-mode:normal;paint-order:stroke fill markers;shape-rendering:auto;solid-color:#000000;image-rendering:auto"
       height="48.05"
       width="135.5"
       y="248.9"
       x="5.215e-7"
       stroke-width="1.906"
       fill="#fff"
       id="rect271" />
  </g>
  <g
     aria-label="NG"
     id="text2593"
     style="font-size:14.1111px;line-height:1.25;fill:#df382c;stroke-width:0.264583">
    <path
       d="m 81.821086,62.910294 v -0.571886 q 0.502984,-0.06201 0.71658,-0.192925 0.213595,-0.130914 0.213595,-0.227376 V 55.317309 Q 82.530775,55.110603 82.289619,54.9728 82.055353,54.834996 81.821086,54.800545 V 54.22866 h 2.080836 q 0.103353,0 0.165365,0.02067 0.0689,0.01378 0.137803,0.0689 0.0689,0.05512 0.144694,0.165365 0.08268,0.103352 0.213596,0.282497 l 4.113441,5.711964 v -5.250321 q 0,-0.04134 -0.04134,-0.09646 -0.04134,-0.06201 -0.151584,-0.117133 -0.103353,-0.06201 -0.282498,-0.117133 -0.179145,-0.05512 -0.454752,-0.09646 V 54.22866 h 2.96278 v 0.571885 q -0.496094,0.0689 -0.71658,0.199815 -0.213595,0.130914 -0.213595,0.227377 v 7.889262 q -0.378961,-0.02756 -0.689019,-0.110243 -0.303168,-0.07579 -0.544325,-0.186035 -0.234266,-0.110243 -0.406521,-0.248047 -0.172254,-0.137803 -0.282497,-0.289387 l -4.003198,-5.53971 v 5.17453 q 0,0.04134 0.04134,0.103353 0.04823,0.05512 0.158474,0.117133 0.110243,0.05512 0.282498,0.110243 0.179145,0.05512 0.447862,0.08957 v 0.571886 z"
       style="font-weight:bold;font-family:'Gentium Book Basic';-inkscape-font-specification:'Gentium Book Basic Bold'"
       id="path2990" />
    <path
       d="m 98.640029,54.724753 q 0.03445,0.02756 0,0.144694 -0.02756,0.110243 -0.09646,0.275607 -0.0689,0.165365 -0.165365,0.35829 -0.09646,0.186035 -0.199815,0.35829 -0.09646,0.172254 -0.186035,0.310058 -0.08957,0.130914 -0.151584,0.186035 l -0.502984,-0.110243 q -0.227376,-0.37207 -0.454752,-0.627007 -0.227376,-0.254937 -0.468533,-0.406521 -0.241156,-0.158474 -0.496093,-0.227376 -0.254937,-0.0689 -0.544325,-0.0689 -0.172254,0 -0.39274,0.0689 -0.220486,0.0689 -0.454753,0.234266 -0.234266,0.158475 -0.454752,0.427192 -0.220486,0.261827 -0.399631,0.668348 -0.172254,0.399631 -0.282497,0.943955 -0.103353,0.544325 -0.103353,1.260904 0,0.909505 0.199815,1.557182 0.199816,0.647678 0.537435,1.061089 0.337619,0.413411 0.771701,0.613226 0.434081,0.192926 0.909504,0.192926 0.330729,0 0.585666,-0.05512 0.261827,-0.05512 0.475423,-0.151584 v -2.032605 q 0,-0.07579 -0.02067,-0.144694 -0.01378,-0.07579 -0.110243,-0.144694 -0.08957,-0.0689 -0.296278,-0.137803 -0.199815,-0.0689 -0.578775,-0.137804 v -0.571885 h 3.520884 v 0.571885 q -0.199815,0.04823 -0.323838,0.110243 -0.124024,0.06201 -0.199816,0.137804 -0.07579,0.07579 -0.103352,0.158474 -0.02756,0.07579 -0.02756,0.158474 v 2.005044 q -0.509874,0.420302 -0.964626,0.695909 -0.454752,0.268717 -0.861273,0.427192 -0.399631,0.158474 -0.757921,0.220485 -0.358289,0.06201 -0.668348,0.06201 -0.509874,0 -1.012857,-0.117133 -0.496093,-0.110243 -0.950846,-0.337619 -0.447862,-0.234266 -0.833712,-0.585666 -0.37896,-0.351399 -0.661458,-0.819932 -0.275607,-0.468533 -0.434082,-1.054198 -0.158474,-0.592556 -0.158474,-1.302245 0,-1.143771 0.36518,-2.046386 0.37207,-0.909504 1.019747,-1.536511 0.654568,-0.633897 1.543402,-0.964626 0.895724,-0.330729 1.943032,-0.330729 0.227376,0 0.551215,0.04823 0.330729,0.04823 0.675238,0.137804 0.34451,0.08957 0.668348,0.220486 0.330729,0.130914 0.551215,0.296278 z"
       style="font-weight:bold;font-family:'Gentium Book Basic';-inkscape-font-specification:'Gentium Book Basic Bold'"
       id="path2992" />
  </g>
</svg>
